# xmcd CD database file generated by OrangeCD 5.2
#
# Track frame offsets:
#	150
#	13170
#	30390
#	44736
#	56615
#	72394
#	83000
#	94863
#	108577
#	122881
#	141500
#	155108
#	166141
#	179616
#
# Disc length: 2588 seconds
#
# Revision: 1
# Processed by: cddbd v1.5.1PL2 Copyright (c) Steve Scherf et al.
# Submitted via: OrangeCD 5.2
#
DISCID=ca0a1a0e
DTITLE=The Derailers - Soldiers Of Love
DYEAR=2006
DGENRE=Country
TTITLE0=Cold Beer, Hot Women and Cool Country Music
TTITLE1=She's A Lot Like Texas
TTITLE2=Soldier Of Love
TTITLE3=Donna Sue Earline
TTITLE4=The One Before Me
TTITLE5=Hey, Valerie !
TTITLE6=Get 'Er Done
TTITLE7=Cattin'
TTITLE8=Every Time It Rains
TTITLE9=Everything I Believe In
TTITLE10=An American Man
TTITLE11=Poppycock
TTITLE12=You're Looking At The Man
TTITLE13=It's Never Too Late For A Party
EXTD=
EXTT0=
EXTT1=
EXTT2=
EXTT3=
EXTT4=
EXTT5=
EXTT6=
EXTT7=
EXTT8=
EXTT9=
EXTT10=
EXTT11=
EXTT12=
EXTT13=
PLAYORDER=
